<svg width="44" height="44" viewBox="0 0 44 44" fill="none" xmlns="http://www.w3.org/2000/svg">
<g opacity="0.64">
<rect width="43.9999" height="43.9999" rx="22" fill="#565ED1"/>
<path d="M11.9167 20.9175L20.9418 13.325C21.2803 13.0403 21.774 13.0383 22.1147 13.3205L31.2884 20.9175" stroke="white" stroke-width="1.375" stroke-linecap="round"/>
<path d="M29.6106 19.5444V29.154C29.6106 29.6595 29.2009 30.0692 28.6954 30.0692H26.3113" stroke="white" stroke-width="1.375" stroke-linecap="round"/>
<path d="M22.5029 29.1545V24.9626C22.5029 24.7169 22.4042 24.4816 22.2289 24.3095L19.4092 21.5413C19.0532 21.1918 18.4829 21.1918 18.1269 21.5413L15.3072 24.3095C15.132 24.4816 15.0332 24.7169 15.0332 24.9626V29.1545C15.0332 29.66 15.4429 30.0697 15.9484 30.0697H21.5877C22.0932 30.0697 22.5029 29.66 22.5029 29.1545Z" fill="white" stroke="white" stroke-width="1.375"/>
<path d="M13.291 25.4932L18.2872 20.901C18.6483 20.5691 19.2069 20.5809 19.5537 20.9278L24.1179 25.4932" stroke="white" stroke-width="1.375" stroke-linecap="round"/>
</g>
</svg>
