<svg width="44" height="44" viewBox="0 0 44 44" fill="none" xmlns="http://www.w3.org/2000/svg">
<g opacity="0.64">
<rect width="43.9999" height="43.9999" rx="22" fill="#617DEA"/>
<rect width="43.9999" height="43.9999" rx="22" fill="#49C1B5"/>
<path d="M24.0498 18.945V16.4736H29.7014V12.708H14.3121V16.4736H19.9643V18.943C15.3707 19.154 11.9167 20.0638 11.9167 21.1536C11.9167 22.2434 15.3723 23.1532 19.9643 23.3655V31.2818H24.0512V23.3648C28.6365 23.1532 32.0834 22.2441 32.0834 21.1553C32.0834 20.0664 28.6365 19.1573 24.0512 18.9457L24.0498 18.945ZM24.0512 22.6943V22.6923C23.9359 22.6996 23.3434 22.7352 22.0243 22.7352C20.9697 22.7352 20.2278 22.7053 19.9663 22.6917V22.695C15.9079 22.5152 12.8787 21.8085 12.8787 20.9629C12.8787 20.1172 15.9083 19.4115 19.9663 19.2314V21.9909C20.2321 22.0092 20.9923 22.054 22.0416 22.054C23.3019 22.054 23.9355 22.0015 24.0518 21.9909V19.2314C28.1022 19.4118 31.1245 20.1192 31.1245 20.9619C31.1245 21.8045 28.1009 22.5122 24.0518 22.6927" fill="white"/>
</g>
</svg>
