<svg width="48" height="48" viewBox="0 0 48 48" fill="none" xmlns="http://www.w3.org/2000/svg">
<circle cx="24" cy="24" r="24" fill="#FA8A34"/>
<path d="M33.7538 25.6308C33.6923 25.6308 33.6308 25.6308 33.6308 25.6308L24.7077 27.3538L21.6308 26.1231L25.6923 25.0769C26.1846 24.9538 26.5538 24.5231 26.5538 24.0308C26.5538 23.5385 26.1231 23.0462 25.5692 22.9846L21.8769 23.0462C21.3231 23.0462 20.7692 22.9231 20.2769 22.6769C19.3538 22.2462 18.4923 22 17.6923 22C17.0769 22 16.4 22.1231 15.9692 22.3077C15.552 22.5163 14.8695 23.0343 14.2965 23.4497C14.1116 23.5838 14 23.7976 14 24.026V28.9666C14 29.4562 14.3544 29.8738 14.8375 29.9533L24.4615 31.5385C24.5846 31.6 24.8923 31.6 25.0154 31.6C25.3846 31.6 25.6923 31.5385 26 31.4154L34.2462 27.7846C34.8 27.5385 35.0462 26.9231 34.8615 26.3692C34.6769 25.9385 34.2461 25.6308 33.7538 25.6308Z" fill="white"/>
<circle cx="28.5" cy="18.5" r="2.8" fill="white" stroke="#6ED4BE" stroke-width="0.6"/>
</svg>
