<svg width="48" height="48" viewBox="0 0 48 48" fill="none" xmlns="http://www.w3.org/2000/svg">
<rect width="47.9999" height="47.9999" rx="24" fill="#FA8A34"/>
<path d="M32.2069 21.8444C32.5502 19.5327 30.8029 18.29 28.4136 17.461L29.1887 14.3296L27.2963 13.8545L26.5418 16.9035C26.0443 16.7786 25.5334 16.6608 25.0257 16.5441L25.7856 13.475L23.8944 13L23.1188 16.1304C22.707 16.0359 22.3028 15.9425 21.9104 15.8443L21.9126 15.8345L19.3029 15.1781L18.7995 17.214C18.7995 17.214 20.2035 17.5381 20.1739 17.5582C20.9403 17.7509 21.0788 18.2618 21.0556 18.6668L20.1728 22.2342C20.2256 22.2478 20.294 22.2673 20.3695 22.2977C20.3064 22.282 20.2391 22.2646 20.1695 22.2478L18.9321 27.2452C18.8383 27.4797 18.6006 27.8315 18.0649 27.698C18.0837 27.7257 16.6894 27.3521 16.6894 27.3521L15.75 29.5341L18.2125 30.1524C18.6707 30.2681 19.1196 30.3891 19.5616 30.5031L18.7785 33.6704L20.6686 34.1455L21.4442 31.0118C21.9605 31.153 22.4618 31.2833 22.9522 31.406L22.1794 34.525L24.0717 35L24.8548 31.8387C28.0816 32.4538 30.508 32.2057 31.5294 29.2659C32.3524 26.8988 31.4884 25.5334 29.7907 24.6431C31.0271 24.3559 31.9584 23.5366 32.2069 21.8444ZM27.8833 27.9515C27.2985 30.3186 23.3419 29.0389 22.0592 28.7181L23.0983 24.522C24.381 24.8445 28.4945 25.4829 27.8833 27.9515ZM28.4686 21.8102C27.935 23.9634 24.6419 22.8694 23.5737 22.6012L24.5158 18.7955C25.584 19.0637 29.0243 19.5642 28.4686 21.8102Z" fill="white"/>
</svg>
