<svg width="48" height="48" viewBox="0 0 48 48" fill="none" xmlns="http://www.w3.org/2000/svg">
<rect width="47.9999" height="47.9999" rx="24" fill="#CB9655"/>
<path d="M26.382 15.5H21.618C21.2393 15.5 20.893 15.714 20.7236 16.0528L18.2236 21.0528C17.8912 21.7177 18.3747 22.5 19.118 22.5H28.882C29.6253 22.5 30.1088 21.7177 29.7764 21.0528L27.2764 16.0528C27.107 15.714 26.7607 15.5 26.382 15.5Z" fill="white"/>
<path d="M19.382 25H14.618C14.2393 25 13.893 25.214 13.7236 25.5528L11.2236 30.5528C10.8912 31.2177 11.3747 32 12.118 32H21.882C22.6253 32 23.1088 31.2177 22.7764 30.5528L20.2764 25.5528C20.107 25.214 19.7607 25 19.382 25Z" fill="white"/>
<path d="M33.382 25H28.618C28.2393 25 27.893 25.214 27.7236 25.5528L25.2236 30.5528C24.8912 31.2177 25.3747 32 26.118 32H35.882C36.6253 32 37.1088 31.2177 36.7764 30.5528L34.2764 25.5528C34.107 25.214 33.7607 25 33.382 25Z" fill="white"/>
</svg>
