<svg width="48" height="48" viewBox="0 0 48 48" fill="none" xmlns="http://www.w3.org/2000/svg">
<rect width="47.9999" height="47.9999" rx="24" fill="#F7D16D"/>
<rect width="47.9999" height="47.9999" rx="24" fill="#F7D16D"/>
<rect width="47.9999" height="47.9999" rx="24" fill="#5AA5FA"/>
<path d="M15.5 22.2047V33C15.5 33.2761 15.7239 33.5 16 33.5H21.5C22.0523 33.5 22.5 33.0523 22.5 32.5V20.419C22.5 19.7275 21.8149 19.2447 21.1637 19.4773L16.1637 21.263C15.7657 21.4051 15.5 21.7821 15.5 22.2047Z" fill="#C2DEFF"/>
<path d="M33.5 22.2047V33C33.5 33.2761 33.2761 33.5 33 33.5H27.5C26.9477 33.5 26.5 33.0523 26.5 32.5V20.419C26.5 19.7275 27.1851 19.2447 27.8363 19.4773L32.8363 21.263C33.2343 21.4051 33.5 21.7821 33.5 22.2047Z" fill="#C2DEFF"/>
<path d="M29.5364 29.7842H30.2864" stroke="white" stroke-width="1.5" stroke-linecap="round" stroke-linejoin="round"/>
<path d="M29.5364 25.1165H30.2864" stroke="white" stroke-width="1.5" stroke-linecap="round" stroke-linejoin="round"/>
<path d="M18.7478 30.0835H17.9978" stroke="white" stroke-width="1.5" stroke-linecap="round" stroke-linejoin="round"/>
<path d="M27.6014 32.6844V14.8164C27.6014 14.6882 27.5505 14.5652 27.4599 14.4746C27.3692 14.3839 27.2463 14.333 27.1181 14.333H21.3174C21.1892 14.333 21.0662 14.3839 20.9756 14.4746C20.8849 14.5652 20.834 14.6882 20.834 14.8164V32.6844" fill="white"/>
<path d="M24.0012 18.25H24.7512" stroke="#5AA5FA" stroke-width="1.5" stroke-linecap="round" stroke-linejoin="round"/>
<path d="M24.0012 25.334H24.7512" stroke="#C2DEFF" stroke-width="1.5" stroke-linecap="round" stroke-linejoin="round"/>
<path d="M24.0012 30.0835H24.7512" stroke="#C2DEFF" stroke-width="1.5" stroke-linecap="round" stroke-linejoin="round"/>
<path d="M34 33.3335L14 33.3335" stroke="white" stroke-width="1.5" stroke-linecap="round" stroke-linejoin="round"/>
</svg>
