<svg width="44" height="44" viewBox="0 0 44 44" fill="none" xmlns="http://www.w3.org/2000/svg">
<g opacity="0.64">
<rect width="44.0001" height="44.0001" rx="22" fill="#E2ED5C"/>
<path d="M23.4102 11.4585H19.6619C19.2678 11.4585 18.9179 11.7103 18.7927 12.0839L15.4927 21.9319C15.2937 22.5258 15.7355 23.1399 16.3618 23.1399H19.0871C19.6772 23.1399 20.1135 23.6892 19.98 24.2639L18.2526 31.7024C18.0255 32.6802 19.3091 33.2593 19.8919 32.442L28.3004 20.6495C28.7331 20.0427 28.2993 19.2007 27.554 19.2007H23.0799C22.4352 19.2007 21.9919 18.5527 22.2255 17.9518L24.2645 12.7073C24.4982 12.1064 24.0549 11.4585 23.4102 11.4585Z" fill="#06070A"/>
</g>
</svg>
