<svg width="44" height="44" viewBox="0 0 44 44" fill="none" xmlns="http://www.w3.org/2000/svg">
<g opacity="0.72">
<rect width="44.0001" height="44.0001" rx="22" fill="#193989"/>
<g clip-path="url(#clip0_8_5119)">
<path d="M25.5842 24.8486L24.7894 25.6489L24.0167 24.8541L23.6001 23.6175L22.4162 23.2092L22.4139 22.4392L21.6439 22.4415L21.2378 24.3953L21.6544 25.6594L19.8422 26.4624L19.2894 25.6672L19.6717 24.8679L19.6689 24.0154L18.4864 24.0195L16.9244 25.6746L15.741 25.2937L15.735 23.6437L13.6716 23.3201L12.1894 24.1226L11.308 23.7404L11.3025 22.0633L12.0986 21.6751L15.2561 20.0975L15.7245 20.4812L16.9038 19.295L16.901 18.5245L18.4631 16.952L19.2555 15.2717L20.4311 13.3156L22.3827 12.9241L23.1802 12.9214L23.1825 13.6914L24.7555 15.2539L24.7606 16.9314L27.2163 19.2611L29.5864 20.8478L30.7698 21.2292L31.1864 22.4103L32.7567 23.1757L31.9615 23.975L31.1919 23.9778L31.1892 23.1808L30.0053 22.799L28.0189 20.8533L26.4486 20.0609L24.7633 17.7018L23.991 16.9336L24.3719 15.6677L23.1853 14.4889L22.3901 15.2612L22.3956 16.9391L21.6283 17.7119L23.2009 19.2739L22.4061 20.0737L24.0062 21.6362L24.0089 22.4337L24.7839 23.9984L25.5814 23.9961L26.4587 23.1959L26.0453 22.8122L25.5737 21.6311L26.4537 21.6284L27.2287 23.1936L28.029 23.9883L25.5842 24.8486Z" fill="white"/>
<path d="M11.3319 31.0556L11.3181 26.8755L12.1967 26.4878L12.2119 31.0533L11.3319 31.0556Z" fill="white"/>
<path d="M15.8418 31.041C14.9618 31.0437 14.9618 31.0437 14.9618 31.0437C14.9554 29.2283 14.9554 29.2282 14.9554 29.2282C14.9535 28.6787 14.7335 28.5142 14.4035 28.5151C14.0185 28.5165 13.854 28.6824 13.8558 29.2319C13.8618 31.0469 13.8618 31.0469 13.8618 31.0469C13.0097 31.0497 13.0097 31.0497 13.0097 31.0497C12.9983 27.7226 12.9983 27.7226 12.9983 27.7226C13.8508 27.7199 13.8508 27.7199 13.8508 27.7199C13.8517 27.9674 13.8517 27.9674 13.8517 27.9674C14.0158 27.8019 14.2353 27.6635 14.6478 27.6621C15.4178 27.6594 15.8322 28.208 15.8354 29.143" fill="white"/>
<path d="M19.3783 27.7014C18.2068 31.0335 18.2068 31.0335 18.2068 31.0335C17.3268 31.0363 17.3268 31.0363 17.3268 31.0363C16.1333 27.7124 16.1333 27.7124 16.1333 27.7124C17.0963 27.7092 17.0963 27.7092 17.0963 27.7092C17.5683 29.2199 17.5683 29.2199 17.5683 29.2199C17.6522 29.5224 17.7081 29.8524 17.7906 29.9894C17.7902 29.8519 17.8722 29.5215 17.9529 29.2185C18.4158 27.7046 18.4158 27.7046 18.4158 27.7046" fill="white"/>
<path d="M21.7474 28.959C21.664 28.6565 21.4981 28.4099 21.1131 28.4108C20.7006 28.4122 20.4815 28.6602 20.3999 28.9636M21.2043 31.0779C20.2413 31.0811 19.5245 30.3959 19.5213 29.3509C19.5176 28.3329 20.2303 27.6431 21.1103 27.6404C22.0453 27.6376 22.5981 28.4058 22.6013 29.3408C22.6017 29.5054 22.6017 29.5054 22.6022 29.6708C20.4022 29.6781 20.4022 29.6781 20.4022 29.6781C20.486 30.0627 20.8715 30.2268 21.2015 30.2254C21.339 30.2249 21.669 30.1411 21.8331 29.9761C22.4399 30.4692 22.4399 30.4692 22.4399 30.4692C22.1393 30.9376 21.5072 31.077 21.2043 31.0779Z" fill="white"/>
<path d="M24.5021 30.2974C24.8046 30.2965 24.9696 30.2136 24.9692 30.0486C24.9683 29.829 24.6658 29.747 24.5008 29.7474C23.8678 29.5847 23.0698 29.5045 23.0671 28.6525C23.0652 28.02 23.6964 27.6322 24.4114 27.6304C24.8793 27.629 25.3468 27.7651 25.6782 28.0117C25.2125 28.6456 25.2125 28.6456 25.2125 28.6456C24.9646 28.4815 24.6616 28.3999 24.4141 28.4008C24.0291 28.4018 23.9466 28.4847 23.9471 28.6497C23.9475 28.7872 24.415 28.8679 24.6635 28.9499C25.2964 29.1126 25.8469 29.2758 25.8492 29.9633C25.8519 30.6783 25.1378 31.0651 24.4228 31.0679C23.8728 31.0697 23.4049 30.8516 22.9915 30.6054C23.4846 30.0536 23.4846 30.0536 23.4846 30.0536C23.7867 30.2172 24.1171 30.2988 24.5021 30.2974Z" fill="white"/>
<path d="M27.9612 28.4709C27.4937 28.4723 27.1101 28.8586 27.1115 29.3261C27.1128 29.8211 27.4997 30.2048 27.9667 30.2034C28.2967 30.2025 28.5158 30.0366 28.6803 29.8161C29.3972 30.3634 29.3972 30.3634 29.3972 30.3634C29.0685 30.7497 28.5195 31.0536 27.9695 31.0554C27.0345 31.0582 26.2347 30.2914 26.2315 29.3289C26.2282 28.3939 27.0235 27.6211 27.9585 27.6179C28.5085 27.6161 29.0594 27.9168 29.3908 28.3008C28.6771 28.8531 28.6771 28.8531 28.6771 28.8531C28.5117 28.6345 28.2908 28.47 27.9612 28.4709Z" fill="white"/>
<path d="M32.1438 29.3101C32.1424 28.8422 31.811 28.4585 31.3435 28.4599C30.7935 28.4617 30.4929 28.8477 30.4938 29.3156C30.4956 29.8106 30.799 30.1942 31.349 30.1929C31.817 30.191 32.1456 29.8051 32.1438 29.3101ZM32.9963 29.3069C32.9995 30.2694 32.3147 31.0412 31.3518 31.0445C30.4168 31.0477 29.617 30.2804 29.6138 29.3179C29.6106 28.3829 30.4058 27.6097 31.3408 27.6069C32.3033 27.6042 32.9931 28.3719 32.9963 29.3069Z" fill="white"/>
</g>
</g>
<defs>
<clipPath id="clip0_8_5119">
<rect width="22.0001" height="18.3334" fill="white" transform="translate(11 12.8335)"/>
</clipPath>
</defs>
</svg>
