<svg width="44" height="44" viewBox="0 0 44 44" fill="none" xmlns="http://www.w3.org/2000/svg">
<circle opacity="0.4" cx="22" cy="22" r="22" fill="#00B28C"/>
<path d="M15.5833 29.3333L15.681 28.7046C15.8569 27.5741 16.5362 26.5758 17.6031 26.1628C18.7974 25.7006 20.5198 25.1965 22.3525 25.1965C24.1852 25.1965 25.9076 25.7006 27.1018 26.1628C28.1688 26.5758 28.8481 27.5741 29.0239 28.7046L29.1217 29.3333" stroke="white" stroke-width="1.46667" stroke-linecap="round" stroke-linejoin="round"/>
<path d="M22.3527 22.1881C24.4297 22.1881 26.1134 20.5044 26.1134 18.4274C26.1134 16.3505 24.4297 14.6667 22.3527 14.6667C20.2758 14.6667 18.592 16.3505 18.592 18.4274C18.592 20.5044 20.2758 22.1881 22.3527 22.1881Z" stroke="white" stroke-width="1.46667" stroke-linecap="round" stroke-linejoin="round"/>
</svg>
